<svg id="Capa_1" data-name="Capa 1" xmlns="http://www.w3.org/2000/svg" viewBox="0 0 512 502.13"><defs><style>.cls-1{fill:#fff;}</style></defs><title>coronavirus</title><path class="cls-1" d="M493.35,251.63a23.1,23.1,0,0,0-26.3,15.18l-26.31-11.49c.05-1.8.08-3.58.08-5.3a183.78,183.78,0,0,0-5.76-45.71l11.8-8a26.29,26.29,0,0,0,41.84-29.37L483.15,152a26.45,26.45,0,0,0-33-16.23,26.35,26.35,0,0,0-18.12,25l-13.39,1.87c-1.83-3.36-3.84-6.77-6-10.17a7.52,7.52,0,0,0-12.72,8c2.53,4,4.84,8,6.88,11.94a10.5,10.5,0,0,0,10.73,5.54l24.15-3.37a7.52,7.52,0,0,0,6-10,11.26,11.26,0,0,1,7.1-14.52,11.6,11.6,0,0,1,14.21,7.2l5.56,14.91c2.15,5.77-.48,12.37-5.87,14.71a11.31,11.31,0,0,1-14.14-4.47A7.51,7.51,0,0,0,444,180.1l-20,13.58a10.47,10.47,0,0,0-4.21,11.46A168.56,168.56,0,0,1,425.79,250c0,2.49-.06,5.1-.19,7.74a10.53,10.53,0,0,0,6.26,10.09l37.55,16.4a7.51,7.51,0,0,0,10.38-5.44l1.19-6.06a8.06,8.06,0,0,1,15.83,3.11l-6.16,31.38a8.07,8.07,0,0,1-9.86,6.27,8.39,8.39,0,0,1-5.89-9.81l.16-.84a7.52,7.52,0,0,0-7.72-9l-40.62,1.85a10.53,10.53,0,0,0-9.46,7.18,167.65,167.65,0,0,1-14.84,32.62,10.49,10.49,0,0,0,1,12.08l18,21.35a7.51,7.51,0,0,0,10.93.61,11.24,11.24,0,0,1,16.66,15l-5.21,6.8c-3.74,4.89-10.73,6.14-15.57,2.8a11.31,11.31,0,0,1-4.28-12.87,7.51,7.51,0,0,0-4.1-9.28l-25.88-11.37a10.47,10.47,0,0,0-12,2.55,168.74,168.74,0,0,1-39.61,32.09A10.53,10.53,0,0,0,337.31,406l6.63,40.4a7.52,7.52,0,0,0,10.21,5.76l5.73-2.29a8.07,8.07,0,0,1,10.62,4.87,8.39,8.39,0,0,1-5,10.27l-29.28,11.71a8.07,8.07,0,0,1-10.62-4.87,8.39,8.39,0,0,1,5-10.27l.79-.32A7.51,7.51,0,0,0,334.71,450l-23.62-33.1a10.54,10.54,0,0,0-11.16-4,169.16,169.16,0,0,1-76.07,2,10.55,10.55,0,0,0-10.93,4.62L189.27,456.5a7.52,7.52,0,0,0,3.76,11.1l.84.31a11.44,11.44,0,0,1,6.83,14.67,7.5,7.5,0,0,0-.45,2.57c0,2.84-.84,5-2.36,6.06s-3.83,1.12-6.5.14l-29-10.59a11.49,11.49,0,0,1-6.9-14.46,11.08,11.08,0,0,1,5.81-6.39,12.23,12.23,0,0,1,9.4-.48l.67.24a7.51,7.51,0,0,0,10-6.23L186.16,410a10.53,10.53,0,0,0-5.61-10.46,168.24,168.24,0,0,1-46.72-35.67,10.51,10.51,0,0,0-11.68-2.61L86.7,375.79a7.52,7.52,0,0,0-3.78,10.49,9.13,9.13,0,0,1-3.06,12A9.49,9.49,0,0,1,67,395.45l-9.08-13.07a9.43,9.43,0,0,1,1.58-12.81,9.17,9.17,0,0,1,13,1.66,7.51,7.51,0,0,0,11.62.45l25-28.22a10.5,10.5,0,0,0,1.31-12A168.26,168.26,0,0,1,103,316.29a7.52,7.52,0,0,0-13.81,5.93c2,4.67,4.2,9.26,6.55,13.68L77.86,356.11a24.26,24.26,0,0,0-27.65,1.65A24.48,24.48,0,0,0,45.59,391L54.67,404c7.58,10.91,22.58,14,33.46,6.81A24.1,24.1,0,0,0,98.8,387.07l26.13-10.72a183.17,183.17,0,0,0,45.95,35.07l-3.58,32.28a27.35,27.35,0,0,0-12.53,2.64,26,26,0,0,0-13.56,15.07,26.6,26.6,0,0,0,16,33.46l29,10.59a25.32,25.32,0,0,0,8.66,1.59,20.06,20.06,0,0,0,11.61-3.54c5.26-3.68,8.4-9.85,8.74-17.06a26.52,26.52,0,0,0-9-28.67l17.65-27.68a184.92,184.92,0,0,0,76.74-2l17.15,24a23,23,0,0,0,24,38.56L371,479a23.29,23.29,0,0,0,13.66-29.15,22.92,22.92,0,0,0-12.23-13.47,23.21,23.21,0,0,0-15.18-1.4l-4.64-28.32a183.68,183.68,0,0,0,38.23-30.94l17.49,7.68a26.26,26.26,0,0,0,47.36,17.1l5.21-6.8a26.28,26.28,0,0,0-32.39-39.59L417,340.41a182.86,182.86,0,0,0,13.55-29.79L460,309.28a23,23,0,0,0,45.39.84l6.16-31.38a23.12,23.12,0,0,0-18.22-27.11Z" transform="translate(0 -4.94)"/><path class="cls-1" d="M48.42,271.93l28.17,6.51c.61,3.92,1.37,7.89,2.26,11.86A7.51,7.51,0,1,0,93.52,287c-1-4.61-1.88-9.23-2.5-13.73a10.53,10.53,0,0,0-8-8.78l-39.89-9.21a7.51,7.51,0,0,0-9.21,7.26l0,4.67a9.6,9.6,0,0,1-9.57,9.48A9.26,9.26,0,0,1,15,267.34l.26-29a10.11,10.11,0,0,1,3.1-7.13A9,9,0,0,1,25,228.59,9.46,9.46,0,0,1,34.12,238a7.51,7.51,0,0,0,9.23,7.36L83,236.12a10.53,10.53,0,0,0,8-8.8,166.43,166.43,0,0,1,20.9-61.25,10.5,10.5,0,0,0-1.09-12L91.87,131.85a7.52,7.52,0,0,0-11.72.34l-1.64,2.16a7.35,7.35,0,0,1-10.57,1.2,7.65,7.65,0,0,1-.89-10.39l12.58-16.64a7.34,7.34,0,0,1,12.05,8.35,7.52,7.52,0,0,0,3.36,10.93l26.42,11.42a10.48,10.48,0,0,0,11.9-2.56A168.62,168.62,0,0,1,174.8,103.6,10.54,10.54,0,0,0,180,92.93l-6.09-40.49a7.52,7.52,0,0,0-10.13-5.9L158,48.76a8.06,8.06,0,0,1-10.56-5,8.38,8.38,0,0,1,5.18-10.2l29.43-11.32a8.07,8.07,0,0,1,10.56,5,8.39,8.39,0,0,1-5.18,10.2l-.8.31A7.51,7.51,0,0,0,183.18,49l23.17,33.4a10.53,10.53,0,0,0,11.1,4.19,169,169,0,0,1,40.17-4.82h0a10.51,10.51,0,0,0,9.89-6.95l7.67-21.47a7.52,7.52,0,0,0-4.83-9.7,12.17,12.17,0,0,1-8.45-13,11.83,11.83,0,0,1,4.57-7.93A12.94,12.94,0,0,1,276,20.06l10.54,1.33c6.83.86,11.8,6.9,11.09,13.47a12.11,12.11,0,0,1-9,10.47A7.52,7.52,0,0,0,283,53.45l2.67,23.26a10.48,10.48,0,0,0,8.17,9,166.94,166.94,0,0,1,47.8,18.57,10.53,10.53,0,0,0,11.85-.92L385.3,77.59a7.52,7.52,0,0,0-.06-11.72L380.4,62a8.06,8.06,0,0,1-1-11.64,8.38,8.38,0,0,1,11.42-.72l24.7,19.61a8.06,8.06,0,0,1,1,11.64,8.39,8.39,0,0,1-11.42.72l-.67-.53a7.51,7.51,0,0,0-11.5,2.74l-17,37a10.54,10.54,0,0,0,2,11.7c1.07,1.09,2.12,2.23,3.38,3.59a7.52,7.52,0,1,0,11.06-10.18l-1.52-1.64,12.37-26.85a23,23,0,0,0,21.59-39.93L400.12,37.9A23.29,23.29,0,0,0,368,40.5a22.91,22.91,0,0,0-5.62,17.3,23.21,23.21,0,0,0,6.32,13.87L346.46,89.76a181.92,181.92,0,0,0-46.2-18l-1.65-14.42a27.4,27.4,0,0,0,14-20.9c1.6-14.67-9.24-28.13-24.16-30L277.88,5.15a28.09,28.09,0,0,0-20.66,5.75,26.75,26.75,0,0,0-10.24,18,27.21,27.21,0,0,0,11.8,25.76l-4.35,12.18a184.06,184.06,0,0,0-37.5,4.51L200.12,47.08A23,23,0,0,0,176.68,8.2L147.25,19.52a23.29,23.29,0,0,0-14,29,22.91,22.91,0,0,0,12.05,13.63,23.21,23.21,0,0,0,15.16,1.6l4.26,28.37a183.53,183.53,0,0,0-40.2,32.06l-17-7.34A22.5,22.5,0,0,0,99,95.11a22.37,22.37,0,0,0-31.34,4.35L55.07,116.09a22.56,22.56,0,0,0,3.25,31,22.19,22.19,0,0,0,16.89,5.05A22.46,22.46,0,0,0,85.87,148l11.38,13.37A181.23,181.23,0,0,0,76.5,222.2L47.42,229a24.59,24.59,0,0,0-22.06-15.45A24,24,0,0,0,8,220.41,25.24,25.24,0,0,0,.26,238.22L0,267.2A24.29,24.29,0,0,0,24.3,291.72a24.69,24.69,0,0,0,24.12-19.79Z" transform="translate(0 -4.94)"/><path class="cls-1" d="M220.4,230.9a7.52,7.52,0,1,0-7-13.28c-18,9.52-38.43,7-48.67-6-5.74-7.29-7.72-16.94-5.56-27.19,2.26-10.74,8.73-20.77,18.2-28.24S198.08,144.8,209,145.1c10.47.3,19.39,4.47,25.14,11.76,8.63,10.94,8.52,27.28-.28,41.61a7.52,7.52,0,0,0,12.81,7.86c12.13-19.76,11.84-42.83-.73-58.78-8.55-10.85-21.52-17.06-36.52-17.48-14.49-.42-29.21,4.68-41.44,14.32s-20.62,22.77-23.61,37c-3.09,14.68-.08,28.74,8.47,39.59,9,11.42,23.1,17.43,38.27,17.43a62.65,62.65,0,0,0,29.24-7.47Z" transform="translate(0 -4.94)"/><path class="cls-1" d="M366.22,163.51c0-15.58-14.5-28.26-32.32-28.26s-32.32,12.68-32.32,28.26,14.5,28.26,32.32,28.26S366.22,179.09,366.22,163.51Zm-49.61,0c0-7.29,7.76-13.23,17.29-13.23s17.29,5.93,17.29,13.23-7.76,13.23-17.29,13.23S316.61,170.8,316.61,163.51Z" transform="translate(0 -4.94)"/><path class="cls-1" d="M279,292.67a34.63,34.63,0,1,0-34.63,34.63A34.67,34.67,0,0,0,279,292.67Zm-54.23,0a19.6,19.6,0,1,1,19.6,19.6A19.62,19.62,0,0,1,224.79,292.67Z" transform="translate(0 -4.94)"/><path class="cls-1" d="M377,278.54a26.93,26.93,0,1,0-26.93,26.93A27,27,0,0,0,377,278.54Zm-38.83,0a11.9,11.9,0,1,1,11.9,11.9A11.91,11.91,0,0,1,338.16,278.54Z" transform="translate(0 -4.94)"/><path class="cls-1" d="M278.36,399.67A26.39,26.39,0,1,0,252,373.28,26.42,26.42,0,0,0,278.36,399.67Zm0-37.75A11.36,11.36,0,1,1,267,373.28,11.37,11.37,0,0,1,278.36,361.92Z" transform="translate(0 -4.94)"/><path class="cls-1" d="M160.26,355.31a27.18,27.18,0,1,0-27.18-27.18A27.21,27.21,0,0,0,160.26,355.31Zm0-39.32a12.15,12.15,0,1,1-12.15,12.15A12.16,12.16,0,0,1,160.26,316Z" transform="translate(0 -4.94)"/><path class="cls-1" d="M313.29,234.08a7.51,7.51,0,0,0-7.52-7.52h-6.64a7.52,7.52,0,1,0,0,15h6.64A7.51,7.51,0,0,0,313.29,234.08Z" transform="translate(0 -4.94)"/><path class="cls-1" d="M210.45,373h6.83a7.52,7.52,0,0,0,0-15h-6.83a7.52,7.52,0,1,0,0,15Z" transform="translate(0 -4.94)"/><path class="cls-1" d="M147.17,263.52a7.52,7.52,0,1,0,0-15H140.6a7.52,7.52,0,0,0,0,15Z" transform="translate(0 -4.94)"/><path class="cls-1" d="M280.65,132a7.52,7.52,0,0,0,0-15H271.5a7.52,7.52,0,0,0,0,15Z" transform="translate(0 -4.94)"/><path class="cls-1" d="M330.64,333.47a7.52,7.52,0,0,0,0,15h10.1a7.52,7.52,0,0,0,0-15Z" transform="translate(0 -4.94)"/></svg>